<?xml version="1.0" encoding="utf-8"?>
<!-- Generator: Adobe Illustrator 23.0.1, SVG Export Plug-In . SVG Version: 6.00 Build 0)  -->
<svg version="1.1" id="Layer_1" xmlns="http://www.w3.org/2000/svg" xmlns:xlink="http://www.w3.org/1999/xlink" x="0px" y="0px"
	 viewBox="0 0 800 600" style="enable-background:new 0 0 800 600;" xml:space="preserve">
<style type="text/css">
	.st0{fill:#FFFFFF;}
	.st1{fill:url(#SVGID_1_);}
	.st2{fill:#FFFFFF;stroke:#FFFFFF;stroke-miterlimit:10;}
</style>
<g>
	<polygon class="st0" points="393.44,186.01 425.89,275.81 474.1,254.4 395.42,111.87 261.01,349.04 348.39,310.23 	"/>
	<polygon class="st0" points="428.76,283.76 438.21,309.92 526.96,350.15 477.15,259.91 	"/>
</g>
<linearGradient id="SVGID_1_" gradientUnits="userSpaceOnUse" x1="258.9859" y1="271.9755" x2="618.4359" y2="271.9755">
	<stop  offset="0" style="stop-color:#44B4BE"/>
	<stop  offset="0.0224" style="stop-color:#50B7BD"/>
	<stop  offset="0.1313" style="stop-color:#84C4B6"/>
	<stop  offset="0.2261" style="stop-color:#A9CDB1"/>
	<stop  offset="0.3021" style="stop-color:#C1D3AE"/>
	<stop  offset="0.3497" style="stop-color:#C9D5AD"/>
	<stop  offset="0.7055" style="stop-color:#B55474"/>
	<stop  offset="0.7819" style="stop-color:#B25372"/>
	<stop  offset="0.83" style="stop-color:#AA506E"/>
	<stop  offset="0.8703" style="stop-color:#9B4B65"/>
	<stop  offset="0.9062" style="stop-color:#864359"/>
	<stop  offset="0.9394" style="stop-color:#6C394A"/>
	<stop  offset="0.9699" style="stop-color:#4B2E37"/>
	<stop  offset="0.9988" style="stop-color:#252021"/>
	<stop  offset="1" style="stop-color:#231F20"/>
</linearGradient>
<polygon class="st1" points="258.99,351.83 618.44,192.12 298.34,283.18 "/>
<g>
	<path class="st2" d="M155.38,469.33H149l-6.71-13.03h-27.1l-6.81,13.03H102l25.06-45.21h3.44L155.38,469.33z M139.55,451.93
		l-10.87-19.32l-11,19.32H139.55z"/>
	<path class="st2" d="M212.75,435.78c0,3.58-1.76,6.47-5.29,8.67c-3.35,2.13-7.61,3.19-12.77,3.19h-10.26v21.69h-6.17v-45.25h16.43
		c5.24,0,9.52,1.02,12.83,3.07C211.01,429.27,212.75,432.15,212.75,435.78z M206.58,435.78c0-2.4-1.18-4.24-3.55-5.54
		c-2.15-1.2-4.97-1.8-8.46-1.8h-10.15v14.83h10.26c3.31,0,6.12-0.68,8.43-2.04C205.43,439.86,206.58,438.05,206.58,435.78z"/>
	<path class="st2" d="M278.47,469.33h-32.31v-45.25h32.31v4.37h-26.15v13.91h26.15v4.37h-26.15v18.23h26.15V469.33z"/>
	<path class="st2" d="M351.23,469.33h-6.73l-15.45-19.03l-15.25,19.03h-6.78l18.53-23.08l-17.74-22.17h6.69l14.55,18.31l14.55-18.31
		h6.65l-17.81,22.2L351.23,469.33z"/>
	<path class="st2" d="M481.86,469.33h-38.21v-45.25h6.28v40.88h31.93V469.33z"/>
	<path class="st2" d="M556.25,469.33h-6.38l-6.71-13.03h-27.1l-6.81,13.03h-6.38l25.06-45.21h3.44L556.25,469.33z M540.41,451.93
		l-10.87-19.32l-11,19.32H540.41z"/>
	<path class="st2" d="M617.12,455.8c0,4.13-2.02,7.46-6.06,9.96c-3.86,2.37-8.79,3.56-14.79,3.56h-20.63v-45.25h16.43
		c5.06,0,9.15,1,12.28,2.99c3.27,2.07,4.91,4.85,4.91,8.35c0,3.37-2.64,5.86-7.91,7.47c4.51,0,8.32,1.39,11.41,4.18
		C615.66,449.64,617.12,452.55,617.12,455.8z M603.09,435.44c0-4.66-3.59-6.99-10.75-6.99H581.8v13.91h11.03
		c2.98,0,5.44-0.64,7.37-1.91C602.12,439.17,603.09,437.5,603.09,435.44z M610.95,455.8c0-2.68-1.49-4.92-4.48-6.71
		c-2.84-1.66-6.2-2.49-10.1-2.49H581.8v18.35h14.57c4.15,0,7.57-0.79,10.26-2.37C609.51,460.89,610.95,458.63,610.95,455.8z"/>
	<path class="st2" d="M683,456.38c0,8.89-6.2,13.33-18.61,13.33c-10.48,0-17.49-3.59-21.01-10.76l6.44-1.54
		c0,2.45,1.64,4.44,4.91,5.98c2.8,1.3,6.02,1.95,9.66,1.95c8.3,0,12.45-2.91,12.45-8.74c0-2.12-1.97-4.27-5.9-6.44
		c-1.93-1.05-5.95-2.78-12.06-5.21c-5.09-2.02-8.35-3.63-9.77-4.83c-1.53-1.3-2.29-3.09-2.29-5.36c0-3.35,1.71-6.04,5.13-8.09
		c3.24-1.91,7.3-2.87,12.17-2.87c7.13,0,12.57,2.57,16.32,7.7l-6,1.61c-2.66-3.3-6.1-4.95-10.32-4.95c-3.02,0-5.57,0.61-7.64,1.84
		c-2.26,1.3-3.38,2.99-3.38,5.06c0,1.86,2.58,3.82,7.75,5.86c8.77,3.5,13.57,5.46,14.41,5.9C680.42,449.59,683,452.77,683,456.38z"
		/>
</g>
</svg>
